<svg width="106" height="32" viewBox="0 0 106 32" fill="none" xmlns="http://www.w3.org/2000/svg">
<rect width="800" height="734" transform="translate(-335 -403)" fill="white"/>
<path d="M101 0H31V32H101C103.761 32 106 29.7614 106 27V5C106 2.23858 103.761 0 101 0Z" fill="#0F1418"/>
<path d="M31 0H5C2.23858 0 0 2.23858 0 5V27C0 29.7614 2.23858 32 5 32H31V0Z" fill="#1A202C"/>
<path d="M47.6521 18.3818V22H45.2863V11.4971H48.9924C51.6389 11.4971 52.9621 12.6128 52.9621 14.8442C52.9621 15.8989 52.5812 16.7534 51.8195 17.4077C51.0627 18.0571 50.0495 18.3818 48.78 18.3818H47.6521ZM47.6521 13.3135V16.5874H48.5822C49.842 16.5874 50.4719 16.0356 50.4719 14.9321C50.4719 13.853 49.842 13.3135 48.5822 13.3135H47.6521ZM59.6094 16.5874C59.3311 16.436 59.0064 16.3604 58.6353 16.3604C58.1323 16.3604 57.7393 16.5459 57.4561 16.917C57.1729 17.2832 57.0313 17.7837 57.0313 18.4185V22H54.7168V14.5H57.0313V15.8916H57.0606C57.4268 14.876 58.086 14.3682 59.0381 14.3682C59.2822 14.3682 59.4727 14.3975 59.6094 14.4561V16.5874ZM62.1038 13.3135C61.7132 13.3135 61.3934 13.1987 61.1444 12.9692C60.8954 12.7349 60.7708 12.4492 60.7708 12.1123C60.7708 11.7656 60.8954 11.4824 61.1444 11.2627C61.3934 11.043 61.7132 10.9331 62.1038 10.9331C62.4994 10.9331 62.8192 11.043 63.0633 11.2627C63.3123 11.4824 63.4369 11.7656 63.4369 12.1123C63.4369 12.4639 63.3123 12.752 63.0633 12.9766C62.8192 13.2012 62.4994 13.3135 62.1038 13.3135ZM63.2464 22H60.932V14.5H63.2464V22ZM64.8839 21.8022V19.9272C65.2648 20.1567 65.6432 20.3276 66.0192 20.4399C66.4001 20.5522 66.7589 20.6084 67.0959 20.6084C67.506 20.6084 67.8283 20.5522 68.0627 20.4399C68.3019 20.3276 68.4215 20.1567 68.4215 19.9272C68.4215 19.7808 68.3678 19.6587 68.2604 19.561C68.153 19.4634 68.0138 19.3779 67.8429 19.3047C67.6769 19.2314 67.4938 19.1655 67.2936 19.1069C67.0934 19.0483 66.9005 18.9824 66.715 18.9092C66.4171 18.7969 66.1535 18.6772 65.924 18.5503C65.6994 18.4185 65.5089 18.2671 65.3527 18.0962C65.2013 17.9253 65.0841 17.7275 65.0011 17.5029C64.923 17.2783 64.8839 17.0122 64.8839 16.7046C64.8839 16.2847 64.9743 15.9233 65.1549 15.6206C65.3405 15.3179 65.5846 15.0713 65.8874 14.8809C66.195 14.6855 66.5441 14.5439 66.9347 14.4561C67.3302 14.3633 67.7404 14.3169 68.1652 14.3169C68.4972 14.3169 68.8341 14.3438 69.1759 14.3975C69.5177 14.4463 69.8546 14.5195 70.1867 14.6172V16.4043C69.8937 16.2334 69.5788 16.1064 69.2419 16.0234C68.9098 15.9355 68.5827 15.8916 68.2604 15.8916C68.109 15.8916 67.965 15.9062 67.8283 15.9355C67.6964 15.96 67.5793 15.999 67.4767 16.0527C67.3742 16.1016 67.2936 16.1675 67.235 16.2505C67.1764 16.3286 67.1471 16.4189 67.1471 16.5215C67.1471 16.6582 67.1911 16.7754 67.279 16.873C67.3669 16.9707 67.4816 17.0562 67.6232 17.1294C67.7648 17.1978 67.9211 17.2612 68.092 17.3198C68.2677 17.3735 68.4411 17.4297 68.612 17.4883C68.9196 17.5957 69.1979 17.7129 69.4469 17.8398C69.696 17.9668 69.9084 18.1157 70.0841 18.2866C70.2648 18.4575 70.4015 18.6577 70.4943 18.8872C70.592 19.1167 70.6408 19.3901 70.6408 19.7075C70.6408 20.1519 70.5431 20.5327 70.3478 20.8501C70.1574 21.1626 69.901 21.4189 69.5788 21.6191C69.2614 21.8145 68.8927 21.9561 68.4728 22.0439C68.0578 22.1367 67.6256 22.1831 67.1764 22.1831C66.3512 22.1831 65.5871 22.0562 64.8839 21.8022ZM84.0703 22H81.7632V17.7227C81.7632 16.6338 81.3628 16.0894 80.562 16.0894C80.1811 16.0894 79.8711 16.2529 79.6318 16.5801C79.3926 16.9072 79.2729 17.3149 79.2729 17.8032V22H76.9585V17.6787C76.9585 16.6191 76.5654 16.0894 75.7793 16.0894C75.3838 16.0894 75.0664 16.2456 74.8271 16.5581C74.5928 16.8706 74.4756 17.2954 74.4756 17.8325V22H72.1611V14.5H74.4756V15.6719H74.5049C74.7441 15.2715 75.0786 14.9468 75.5083 14.6978C75.9428 14.4438 76.4165 14.3169 76.9292 14.3169C77.9887 14.3169 78.7138 14.7832 79.1045 15.7158C79.6758 14.7832 80.5156 14.3169 81.624 14.3169C83.2549 14.3169 84.0703 15.3228 84.0703 17.3345V22ZM92.3216 22H90.1316V20.9233H90.1023C89.5994 21.7632 88.8548 22.1831 87.8685 22.1831C87.1409 22.1831 86.5672 21.978 86.1473 21.5679C85.7322 21.1528 85.5247 20.6011 85.5247 19.9126C85.5247 18.4575 86.3865 17.6177 88.1102 17.3931L90.1463 17.1221C90.1463 16.3018 89.702 15.8916 88.8133 15.8916C87.9197 15.8916 87.0701 16.1577 86.2645 16.6899V14.9468C86.5867 14.7808 87.0262 14.6343 87.5828 14.5073C88.1443 14.3804 88.6546 14.3169 89.1136 14.3169C91.2522 14.3169 92.3216 15.3838 92.3216 17.5176V22ZM90.1463 18.9531V18.4478L88.784 18.6235C88.032 18.7212 87.6561 19.0605 87.6561 19.6416C87.6561 19.9053 87.7464 20.1226 87.9271 20.2935C88.1126 20.4595 88.3616 20.5425 88.6741 20.5425C89.1087 20.5425 89.4627 20.3936 89.7361 20.0957C90.0096 19.793 90.1463 19.4121 90.1463 18.9531Z" fill="white"/>
<path d="M101 0H5C2.23858 0 0 2.23858 0 5V27C0 29.7614 2.23858 32 5 32H101C103.761 32 106 29.7614 106 27V5C106 2.23858 103.761 0 101 0Z" fill="url(#paint0_linear_14_369)"/>
<mask id="mask0_14_369" style="mask-type:luminance" maskUnits="userSpaceOnUse" x="7" y="7" width="18" height="18">
<path d="M24.536 7H7V24.6376H24.536V7Z" fill="white"/>
</mask>
<g mask="url(#mask0_14_369)">
<path fill-rule="evenodd" clip-rule="evenodd" d="M8.77239 18.1683C8.59879 18.4538 8.60148 18.814 8.77933 19.0968L11.9979 24.216C12.2069 24.5482 12.6095 24.6997 12.9832 24.5867L22.2714 21.7772C22.7783 21.6239 23.0333 21.0538 22.8117 20.5692L16.8408 7.5101C16.5496 6.87324 15.6718 6.82096 15.3083 7.41884L8.77239 18.1683ZM16.7057 10.4917C16.5786 10.1958 16.1484 10.2414 16.0852 10.5575L13.7835 22.0935C13.735 22.3367 13.9612 22.5444 14.1974 22.4734L20.6231 20.5427C20.8108 20.4864 20.9073 20.2778 20.8297 20.097L16.7057 10.4917Z" fill="white"/>
</g>
<defs>
<linearGradient id="paint0_linear_14_369" x1="0" y1="0" x2="0" y2="32" gradientUnits="userSpaceOnUse">
<stop stop-color="#BBBBBB" stop-opacity="0.1"/>
<stop offset="1" stop-opacity="0.1"/>
</linearGradient>
</defs>
</svg>
